PathFileType	4	(X/Y/Z)	/Users/itak/Documents/Research/Walk-IL/dataset/trc/00440_00167.trc
DataRate	CameraRate	NumFrames	NumMarkers	Units	OrigDataRate	OrigDataStartFrame	OrigNumFrames
100.000000	100.000000	4	53	mm	100.000000	0	490
Frame#	Time	RPSI			LPSI			L3			STRN			T10			C7			CLAV			RBAK			LBAK			LSHO			LUPA			LAEL			LAOL			LWTS			LWPS			LFRA			LIFD			LHPS			LHTS			RSHO			RUPA			RAEL			RAOL			RWTS			RWPS			RFRA			RIFD			RHTS			RHPS			RBHD			LFHD			RFHD			LBHD			LHIP			RHIP			RASI			LASI			LKNE			LTHI			LANK			LTIP			LTOE			LMT1			LMT5			LHEE			RKNE			RTHI			RANK			RTIP			RTOE			RMT1			RMT5			RHEE			
		X1	Y1	Z1	X2	Y2	Z2	X3	Y3	Z3	X4	Y4	Z4	X5	Y5	Z5	X6	Y6	Z6	X7	Y7	Z7	X8	Y8	Z8	X9	Y9	Z9	X10	Y10	Z10	X11	Y11	Z11	X12	Y12	Z12	X13	Y13	Z13	X14	Y14	Z14	X15	Y15	Z15	X16	Y16	Z16	X17	Y17	Z17	X18	Y18	Z18	X19	Y19	Z19	X20	Y20	Z20	X21	Y21	Z21	X22	Y22	Z22	X23	Y23	Z23	X24	Y24	Z24	X25	Y25	Z25	X26	Y26	Z26	X27	Y27	Z27	X28	Y28	Z28	X29	Y29	Z29	X30	Y30	Z30	X31	Y31	Z31	X32	Y32	Z32	X33	Y33	Z33	X34	Y34	Z34	X35	Y35	Z35	X36	Y36	Z36	X37	Y37	Z37	X38	Y38	Z38	X39	Y39	Z39	X40	Y40	Z40	X41	Y41	Z41	X42	Y42	Z42	X43	Y43	Z43	X44	Y44	Z44	X45	Y45	Z45	X46	Y46	Z46	X47	Y47	Z47	X48	Y48	Z48	X49	Y49	Z49	X50	Y50	Z50	X51	Y51	Z51	X52	Y52	Z52	X53	Y53	Z53	

1	0	-1213.7470703125	973.4866943359375	-438.2501525878906	-1141.909301757812	970.3961181640625	-559.8709716796875	-1173.918701171875	1058.2421875	-482.1277160644531	-939.3648681640625	1258.025268554688	-369.2290344238281	-1192.072998046875	1181.616821289062	-496.707275390625	-1149.046875	1450.9775390625	-459.146484375	-972.7213745117188	1371.663452148438	-390.052490234375	-1243.667114257812	1329.710693359375	-400.7252502441406	-1132.472412109375	1404.30517578125	-562.3258666992188	-1003.514953613281	1427.688842773438	-587.5088500976562	-967.1631469726562	1308.667724609375	-680.626953125	-929.8726806640625	1092.407592773438	-696.603271484375	-1030.9931640625	1077.16796875	-678.8717651367188	-880.0535278320312	892.9616088867188	-613.5286254882812	-889.4861450195312	876.407958984375	-685.0639038085938	-904.8706665039062	1005.381286621094	-692.7827758789062	-862.268310546875	726.4115600585938	-610.1737670898438	-882.1239624023438	795.820068359375	-679.0791625976562	-859.4932861328125	805.5926513671875	-610.8413696289062	-1153.95166015625	1419.720336914062	-282.5497741699219	-1199.453125	1356.447143554688	-220.9137115478516	-1205.135498046875	1067.2470703125	-168.3590545654297	-1242.110717773438	1050.664794921875	-222.5638275146484	-1087.24072265625	871.9067993164062	-182.6089782714844	-1167.0517578125	851.4067993164062	-150.7033996582031	-1202.450073242188	1008.650329589844	-159.171142578125	-1078.76953125	713.0985717773438	-173.4750061035156	-1071.423828125	773.3870239257812	-165.0337677001953	-1144.93701171875	765.9900512695312	-147.4351959228516	-1138.982788085938	1644.012939453125	-360.5072937011719	-946.3548583984375	1683.225219726562	-427.7546081542969	-1013.109558105469	1680.16357421875	-315.0158386230469	-1062.26171875	1651.255737304688	-521.6834106445312	-971.8687744140625	860.69970703125	-596.6033325195312	-1186.36767578125	862.7764892578125	-263.6221313476562	-1062.022705078125	901.4300537109375	-259.7566528320312	-922.0436401367188	895.3394165039062	-478.0495910644531	-1012.003723144531	438.6487731933594	-566.2010498046875	-970.3150024414062	588.4396362304688	-572.7890625	-1082.213500976562	35.01323699951172	-590.84033203125	-1018.445617675781	289.3335571289062	-577.5550537109375	-925.0791015625	44.85527420043945	-417.7278442382812	-1003.25634765625	49.10140609741211	-429.8843994140625	-947.0709228515625	46.59519577026367	-528.2406005859375	-1154.839111328125	39.04662704467773	-576.2991333007812	-1159.563110351562	464.0813903808594	-293.9236450195312	-1154.616455078125	725.1719970703125	-238.1121520996094	-1185.56640625	41.6591911315918	-329.2145385742188	-1167.94140625	320.1149597167969	-289.1451721191406	-975.0430908203125	48.05488967895508	-268.2037353515625	-1013.695678710938	54.96214294433594	-328.255859375	-1081.38671875	47.60275268554688	-242.8145599365234	-1221.296264648438	33.63613891601562	-400.95849609375	
2	0.01	-1213.68994140625	973.4913940429688	-438.2130737304688	-1141.888793945312	970.419677734375	-559.83203125	-1173.874389648438	1058.24951171875	-482.0770568847656	-939.3125610351562	1258.015380859375	-369.2073364257812	-1192.029296875	1181.62744140625	-496.6859130859375	-1148.981323242188	1450.974243164062	-459.0897521972656	-972.6625366210938	1371.659301757812	-389.9953308105469	-1243.609985351562	1329.704345703125	-400.6925964355469	-1132.415771484375	1404.31396484375	-562.2723999023438	-1003.454895019531	1427.717529296875	-587.4749755859375	-967.1092529296875	1308.685546875	-680.5835571289062	-929.8399658203125	1092.420288085938	-696.5763549804688	-1030.934326171875	1077.181030273438	-678.82958984375	-879.9585571289062	892.9939575195312	-613.4430541992188	-889.4284057617188	876.4251098632812	-685.0177612304688	-904.8406372070312	1005.400085449219	-692.7523803710938	-862.2645874023438	726.42626953125	-610.1372680664062	-882.125244140625	795.8285522460938	-679.0462646484375	-859.4540405273438	805.614990234375	-610.796142578125	-1153.8828125	1419.717041015625	-282.529052734375	-1199.391357421875	1356.4208984375	-220.8698577880859	-1205.062255859375	1067.219604492188	-168.3416900634766	-1242.0283203125	1050.6376953125	-222.5625762939453	-1087.151489257812	871.8897094726562	-182.5997009277344	-1166.997802734375	851.4087524414062	-150.6997528076172	-1202.359130859375	1008.617553710938	-159.1592102050781	-1078.651000976562	713.078857421875	-173.4663391113281	-1071.330688476562	773.3685913085938	-165.0302734375	-1144.85302734375	765.9699096679688	-147.4312133789062	-1138.903930664062	1643.987670898438	-360.4020690917969	-946.3936157226562	1683.238525390625	-427.6929016113281	-1013.106689453125	1680.163696289062	-314.9483947753906	-1062.299194335938	1651.232543945312	-521.5802612304688	-971.8314208984375	860.6961669921875	-596.5982666015625	-1186.283813476562	862.7662963867188	-263.6033020019531	-1061.934204101562	901.4156494140625	-259.7291259765625	-922.0176391601562	895.3344116210938	-478.0492858886719	-1011.964477539062	438.5898742675781	-566.1397705078125	-970.2765502929688	588.4300537109375	-572.7835083007812	-1082.215698242188	35.01486968994141	-590.84423828125	-1018.436462402344	289.3229064941406	-577.5466918945312	-925.07470703125	44.8454475402832	-417.7315063476562	-1003.264038085938	49.10369110107422	-429.8914489746094	-947.0663452148438	46.58861541748047	-528.23681640625	-1154.832397460938	39.04869079589844	-576.2988891601562	-1159.529541015625	464.0768737792969	-293.9240417480469	-1154.55712890625	725.1656494140625	-238.0917510986328	-1185.566772460938	41.66114807128906	-329.2179870605469	-1167.927734375	320.1145324707031	-289.1390991210938	-975.0398559570312	48.05318832397461	-268.2113952636719	-1013.699096679688	54.95908355712891	-328.2564392089844	-1081.374755859375	47.58974075317383	-242.8248443603516	-1221.28857421875	33.63059997558594	-400.9739074707031	
3	0.02	-1213.618408203125	973.4961547851562	-438.1639709472656	-1141.860473632812	970.4414672851562	-559.787109375	-1173.82080078125	1058.256591796875	-482.0111694335938	-939.2474365234375	1258.003540039062	-369.1808471679688	-1191.974853515625	1181.640869140625	-496.6565551757812	-1148.896484375	1450.969482421875	-459.0177612304688	-972.5867309570312	1371.652709960938	-389.9259643554688	-1243.531127929688	1329.701904296875	-400.6524353027344	-1132.344970703125	1404.324951171875	-562.2018432617188	-1003.37939453125	1427.75390625	-587.4320678710938	-967.041015625	1308.711181640625	-680.5346069335938	-929.7932739257812	1092.436889648438	-696.5404663085938	-1030.867553710938	1077.19970703125	-678.7835083007812	-879.8512573242188	893.0325927734375	-613.3466796875	-889.3539428710938	876.4487915039062	-684.9614868164062	-904.8003540039062	1005.425048828125	-692.71240234375	-862.2576904296875	726.44580078125	-610.0978393554688	-882.1189575195312	795.8414306640625	-678.9996337890625	-859.403564453125	805.6416015625	-610.7354736328125	-1153.790893554688	1419.710205078125	-282.4968872070312	-1199.306762695312	1356.389892578125	-220.8153686523438	-1204.964233398438	1067.185302734375	-168.3195037841797	-1241.926025390625	1050.605346679688	-222.5555572509766	-1087.038330078125	871.867431640625	-182.5865325927734	-1166.923461914062	851.40478515625	-150.6919555664062	-1202.24462890625	1008.577758789062	-159.1434173583984	-1078.503173828125	713.0560302734375	-173.4534149169922	-1071.227783203125	773.3485717773438	-165.0280609130859	-1144.745727539062	765.9447021484375	-147.4225463867188	-1138.803466796875	1643.94970703125	-360.2701110839844	-946.4338989257812	1683.261108398438	-427.6119079589844	-1013.091125488281	1680.163330078125	-314.8587036132812	-1062.333984375	1651.211303710938	-521.4454345703125	-971.7798461914062	860.6930541992188	-596.5890502929688	-1186.182739257812	862.7579345703125	-263.5746154785156	-1061.8251953125	901.3976440429688	-259.6976928710938	-921.983154296875	895.328857421875	-478.049072265625	-1011.90966796875	438.5309143066406	-566.0686645507812	-970.2233276367188	588.417236328125	-572.777099609375	-1082.217407226562	35.01914215087891	-590.8440551757812	-1018.424133300781	289.3096313476562	-577.53369140625	-925.0684204101562	44.83270263671875	-417.7340393066406	-1003.2685546875	49.1051025390625	-429.8964538574219	-947.0599365234375	46.58049011230469	-528.23291015625	-1154.829711914062	39.05775451660156	-576.2959594726562	-1159.4853515625	464.0737609863281	-293.9251403808594	-1154.484008789062	725.1588134765625	-238.0634613037109	-1185.569213867188	41.66474151611328	-329.2238159179688	-1167.909545898438	320.1136169433594	-289.1293334960938	-975.0360717773438	48.05077743530273	-268.2202453613281	-1013.702880859375	54.95558929443359	-328.2565612792969	-1081.36181640625	47.57688522338867	-242.83349609375	-1221.280639648438	33.62507247924805	-400.9881286621094	
4	0.03	-1213.535400390625	973.501220703125	-438.1044616699219	-1141.82470703125	970.4588623046875	-559.7398071289062	-1173.7607421875	1058.2626953125	-481.9330444335938	-939.1719360351562	1257.990478515625	-369.1506958007812	-1191.912231445312	1181.65625	-496.6195983886719	-1148.795166015625	1450.963256835938	-458.9332885742188	-972.4965209960938	1371.643676757812	-389.8485717773438	-1243.431640625	1329.70458984375	-400.6061096191406	-1132.263793945312	1404.337646484375	-562.115966796875	-1003.291625976562	1427.79638671875	-587.3818359375	-966.958984375	1308.744873046875	-680.4842529296875	-929.7316284179688	1092.456909179688	-696.4962158203125	-1030.798950195312	1077.224365234375	-678.7391357421875	-879.7403564453125	893.0750122070312	-613.248291015625	-889.2653198242188	876.4786376953125	-684.8983154296875	-904.7498168945312	1005.456176757812	-692.6635131835938	-862.248046875	726.4693603515625	-610.0594482421875	-882.0992431640625	795.8604736328125	-678.9385375976562	-859.3421630859375	805.6720581054688	-610.6600341796875	-1153.67822265625	1419.69921875	-282.4519653320312	-1199.200073242188	1356.3564453125	-220.752197265625	-1204.842895507812	1067.145874023438	-168.2931060791016	-1241.807495117188	1050.56982421875	-222.5415802001953	-1086.905517578125	871.8406372070312	-182.5704345703125	-1166.82861328125	851.3927001953125	-150.6794738769531	-1202.110717773438	1008.533264160156	-159.1245727539062	-1078.332275390625	713.03271484375	-173.4360656738281	-1071.115844726562	773.328857421875	-165.0270690917969	-1144.619140625	765.9158325195312	-147.4068145751953	-1138.68603515625	1643.898559570312	-360.1173706054688	-946.4695434570312	1683.29443359375	-427.5133972167969	-1013.058227539062	1680.162231445312	-314.7484741210938	-1062.358032226562	1651.196533203125	-521.2838134765625	-971.713623046875	860.6909790039062	-596.5747680664062	-1186.068481445312	862.7529296875	-263.5373840332031	-1061.700317382812	901.3775024414062	-259.6637878417969	-921.9419555664062	895.3231201171875	-478.0487365722656	-1011.837219238281	438.4789733886719	-565.9912109375	-970.154541015625	588.401611328125	-572.7705078125	-1082.21875	35.02775192260742	-590.8388671875	-1018.408508300781	289.2946166992188	-577.516357421875	-925.060302734375	44.81786727905273	-417.7342224121094	-1003.268310546875	49.10514068603516	-429.8983764648438	-947.052001953125	46.57138442993164	-528.229248046875	-1154.83154296875	39.07452774047852	-576.2900390625	-1159.431030273438	464.0730895996094	-293.9267578125	-1154.399169921875	725.15234375	-238.0278930664062	-1185.573364257812	41.66995239257812	-329.2311096191406	-1167.88720703125	320.112060546875	-289.1155700683594	-975.0322265625	48.04792022705078	-268.22900390625	-1013.705871582031	54.95219039916992	-328.2559509277344	-1081.350341796875	47.56585693359375	-242.8399963378906	-1221.273071289062	33.62023162841797	-400.9994201660156	
